solid ASCII
  facet normal -6.703233e-17 1.425043e-31 -1.000000e+00
    outer loop
      vertex   5.200000e+01 2.405000e+00 2.300000e+01
      vertex   -1.000000e+00 2.405000e+00 2.300000e+01
      vertex   5.200000e+01 4.585500e+01 2.300000e+01
    endloop
  endfacet
  facet normal -6.703233e-17 5.261699e-31 -1.000000e+00
    outer loop
      vertex   5.200000e+01 4.585500e+01 2.300000e+01
      vertex   -1.000000e+00 2.405000e+00 2.300000e+01
      vertex   -1.000000e+00 4.585500e+01 2.300000e+01
    endloop
  endfacet
  facet normal 7.691960e-15 1.000000e+00 1.665335e-16
    outer loop
      vertex   -1.000000e+00 2.405000e+00 2.300000e+01
      vertex   5.200000e+01 2.405000e+00 2.300000e+01
      vertex   -1.000000e+00 2.405000e+00 1.500000e+01
    endloop
  endfacet
  facet normal 7.700339e-15 1.000000e+00 1.110223e-16
    outer loop
      vertex   -1.000000e+00 2.405000e+00 1.500000e+01
      vertex   5.200000e+01 2.405000e+00 2.300000e+01
      vertex   5.200000e+01 2.405000e+00 1.500000e+01
    endloop
  endfacet
  facet normal -1.000000e+00 0.000000e+00 -0.000000e+00
    outer loop
      vertex   5.110000e+01 -1.405000e+00 2.300000e+01
      vertex   5.110000e+01 1.405000e+00 2.300000e+01
      vertex   5.110000e+01 -1.405000e+00 1.500000e+01
    endloop
  endfacet
  facet normal -1.000000e+00 0.000000e+00 0.000000e+00
    outer loop
      vertex   5.110000e+01 -1.405000e+00 1.500000e+01
      vertex   5.110000e+01 1.405000e+00 2.300000e+01
      vertex   5.110000e+01 1.405000e+00 1.500000e+01
    endloop
  endfacet
  facet normal 0.000000e+00 -0.000000e+00 -1.000000e+00
    outer loop
      vertex   -1.000000e+00 4.966500e+01 2.300000e+01
      vertex   5.110000e+01 4.966500e+01 2.300000e+01
      vertex   -1.000000e+00 4.685500e+01 2.300000e+01
    endloop
  endfacet
  facet normal 0.000000e+00 0.000000e+00 -1.000000e+00
    outer loop
      vertex   -1.000000e+00 4.685500e+01 2.300000e+01
      vertex   5.110000e+01 4.966500e+01 2.300000e+01
      vertex   5.110000e+01 4.685500e+01 2.300000e+01
    endloop
  endfacet
  facet normal 0.000000e+00 0.000000e+00 -1.000000e+00
    outer loop
      vertex   -1.000000e+00 4.966500e+01 1.500000e+01
      vertex   -1.000000e+00 5.066500e+01 1.500000e+01
      vertex   5.110000e+01 4.966500e+01 1.500000e+01
    endloop
  endfacet
  facet normal 0.000000e+00 0.000000e+00 -1.000000e+00
    outer loop
      vertex   5.110000e+01 4.966500e+01 1.500000e+01
      vertex   -1.000000e+00 5.066500e+01 1.500000e+01
      vertex   5.200000e+01 5.066500e+01 1.500000e+01
    endloop
  endfacet
  facet normal 0.000000e+00 0.000000e+00 -1.000000e+00
    outer loop
      vertex   5.110000e+01 4.966500e+01 1.500000e+01
      vertex   5.200000e+01 5.066500e+01 1.500000e+01
      vertex   5.200000e+01 4.585500e+01 1.500000e+01
    endloop
  endfacet
  facet normal 0.000000e+00 -0.000000e+00 -1.000000e+00
    outer loop
      vertex   5.110000e+01 4.966500e+01 1.500000e+01
      vertex   5.200000e+01 4.585500e+01 1.500000e+01
      vertex   5.110000e+01 4.685500e+01 1.500000e+01
    endloop
  endfacet
  facet normal 0.000000e+00 -0.000000e+00 -1.000000e+00
    outer loop
      vertex   5.110000e+01 4.685500e+01 1.500000e+01
      vertex   5.200000e+01 4.585500e+01 1.500000e+01
      vertex   -1.000000e+00 4.585500e+01 1.500000e+01
    endloop
  endfacet
  facet normal -0.000000e+00 0.000000e+00 -1.000000e+00
    outer loop
      vertex   5.110000e+01 4.685500e+01 1.500000e+01
      vertex   -1.000000e+00 4.585500e+01 1.500000e+01
      vertex   -1.000000e+00 4.685500e+01 1.500000e+01
    endloop
  endfacet
  facet normal 1.000000e+00 -7.386099e-15 0.000000e+00
    outer loop
      vertex   5.200000e+01 4.585500e+01 1.500000e+01
      vertex   5.200000e+01 5.066500e+01 1.500000e+01
      vertex   5.200000e+01 4.585500e+01 2.300000e+01
    endloop
  endfacet
  facet normal 1.000000e+00 -7.386099e-15 -5.831266e-30
    outer loop
      vertex   5.200000e+01 4.585500e+01 2.300000e+01
      vertex   5.200000e+01 5.066500e+01 1.500000e+01
      vertex   5.200000e+01 5.066500e+01 2.400000e+01
    endloop
  endfacet
  facet normal 1.000000e+00 -8.033270e-15 3.112892e-15
    outer loop
      vertex   5.200000e+01 4.585500e+01 2.300000e+01
      vertex   5.200000e+01 5.066500e+01 2.400000e+01
      vertex   5.200000e+01 -2.405000e+00 2.400000e+01
    endloop
  endfacet
  facet normal 1.000000e+00 -2.125905e-15 2.882023e-13
    outer loop
      vertex   5.200000e+01 4.585500e+01 2.300000e+01
      vertex   5.200000e+01 -2.405000e+00 2.400000e+01
      vertex   5.200000e+01 2.405000e+00 2.300000e+01
    endloop
  endfacet
  facet normal 1.000000e+00 -5.514954e-14 3.315866e-14
    outer loop
      vertex   5.200000e+01 2.405000e+00 2.300000e+01
      vertex   5.200000e+01 -2.405000e+00 2.400000e+01
      vertex   5.200000e+01 -2.405000e+00 1.500000e+01
    endloop
  endfacet
  facet normal 1.000000e+00 0.000000e+00 0.000000e+00
    outer loop
      vertex   5.200000e+01 2.405000e+00 2.300000e+01
      vertex   5.200000e+01 -2.405000e+00 1.500000e+01
      vertex   5.200000e+01 2.405000e+00 1.500000e+01
    endloop
  endfacet
  facet normal -7.775751e-15 -1.000000e+00 -1.776357e-15
    outer loop
      vertex   -1.000000e+00 4.585500e+01 1.500000e+01
      vertex   5.200000e+01 4.585500e+01 1.500000e+01
      vertex   -1.000000e+00 4.585500e+01 2.300000e+01
    endloop
  endfacet
  facet normal -7.507621e-15 -1.000000e+00 0.000000e+00
    outer loop
      vertex   -1.000000e+00 4.585500e+01 2.300000e+01
      vertex   5.200000e+01 4.585500e+01 1.500000e+01
      vertex   5.200000e+01 4.585500e+01 2.300000e+01
    endloop
  endfacet
  facet normal -7.637312e-15 -1.000000e+00 8.881784e-16
    outer loop
      vertex   -1.000000e+00 4.966500e+01 1.500000e+01
      vertex   5.110000e+01 4.966500e+01 1.500000e+01
      vertex   -1.000000e+00 4.966500e+01 2.300000e+01
    endloop
  endfacet
  facet normal -7.773692e-15 -1.000000e+00 0.000000e+00
    outer loop
      vertex   -1.000000e+00 4.966500e+01 2.300000e+01
      vertex   5.110000e+01 4.966500e+01 1.500000e+01
      vertex   5.110000e+01 4.966500e+01 2.300000e+01
    endloop
  endfacet
  facet normal 7.637312e-15 1.000000e+00 0.000000e+00
    outer loop
      vertex   -1.000000e+00 4.685500e+01 2.300000e+01
      vertex   5.110000e+01 4.685500e+01 2.300000e+01
      vertex   -1.000000e+00 4.685500e+01 1.500000e+01
    endloop
  endfacet
  facet normal 7.637312e-15 1.000000e+00 0.000000e+00
    outer loop
      vertex   -1.000000e+00 4.685500e+01 1.500000e+01
      vertex   5.110000e+01 4.685500e+01 2.300000e+01
      vertex   5.110000e+01 4.685500e+01 1.500000e+01
    endloop
  endfacet
  facet normal -1.000000e+00 5.057244e-15 0.000000e+00
    outer loop
      vertex   5.110000e+01 4.685500e+01 2.300000e+01
      vertex   5.110000e+01 4.966500e+01 2.300000e+01
      vertex   5.110000e+01 4.685500e+01 1.500000e+01
    endloop
  endfacet
  facet normal -1.000000e+00 5.057244e-15 0.000000e+00
    outer loop
      vertex   5.110000e+01 4.685500e+01 1.500000e+01
      vertex   5.110000e+01 4.966500e+01 2.300000e+01
      vertex   5.110000e+01 4.966500e+01 1.500000e+01
    endloop
  endfacet
  facet normal 0.000000e+00 -0.000000e+00 -1.000000e+00
    outer loop
      vertex   -1.000000e+00 -1.405000e+00 1.500000e+01
      vertex   5.110000e+01 -1.405000e+00 1.500000e+01
      vertex   -1.000000e+00 -2.405000e+00 1.500000e+01
    endloop
  endfacet
  facet normal 0.000000e+00 0.000000e+00 -1.000000e+00
    outer loop
      vertex   -1.000000e+00 -2.405000e+00 1.500000e+01
      vertex   5.110000e+01 -1.405000e+00 1.500000e+01
      vertex   5.200000e+01 -2.405000e+00 1.500000e+01
    endloop
  endfacet
  facet normal 0.000000e+00 0.000000e+00 -1.000000e+00
    outer loop
      vertex   5.200000e+01 -2.405000e+00 1.500000e+01
      vertex   5.110000e+01 -1.405000e+00 1.500000e+01
      vertex   5.110000e+01 1.405000e+00 1.500000e+01
    endloop
  endfacet
  facet normal 0.000000e+00 0.000000e+00 -1.000000e+00
    outer loop
      vertex   5.200000e+01 -2.405000e+00 1.500000e+01
      vertex   5.110000e+01 1.405000e+00 1.500000e+01
      vertex   5.200000e+01 2.405000e+00 1.500000e+01
    endloop
  endfacet
  facet normal -0.000000e+00 0.000000e+00 -1.000000e+00
    outer loop
      vertex   5.200000e+01 2.405000e+00 1.500000e+01
      vertex   5.110000e+01 1.405000e+00 1.500000e+01
      vertex   -1.000000e+00 2.405000e+00 1.500000e+01
    endloop
  endfacet
  facet normal 0.000000e+00 0.000000e+00 -1.000000e+00
    outer loop
      vertex   -1.000000e+00 2.405000e+00 1.500000e+01
      vertex   5.110000e+01 1.405000e+00 1.500000e+01
      vertex   -1.000000e+00 1.405000e+00 1.500000e+01
    endloop
  endfacet
  facet normal -7.816311e-15 -1.000000e+00 6.106227e-16
    outer loop
      vertex   -1.000000e+00 1.405000e+00 1.500000e+01
      vertex   5.110000e+01 1.405000e+00 1.500000e+01
      vertex   -1.000000e+00 1.405000e+00 2.300000e+01
    endloop
  endfacet
  facet normal -7.901549e-15 -1.000000e+00 5.551115e-17
    outer loop
      vertex   -1.000000e+00 1.405000e+00 2.300000e+01
      vertex   5.110000e+01 1.405000e+00 1.500000e+01
      vertex   5.110000e+01 1.405000e+00 2.300000e+01
    endloop
  endfacet
  facet normal 0.000000e+00 -0.000000e+00 -1.000000e+00
    outer loop
      vertex   -1.000000e+00 1.405000e+00 2.300000e+01
      vertex   5.110000e+01 1.405000e+00 2.300000e+01
      vertex   -1.000000e+00 -1.405000e+00 2.300000e+01
    endloop
  endfacet
  facet normal 0.000000e+00 0.000000e+00 -1.000000e+00
    outer loop
      vertex   -1.000000e+00 -1.405000e+00 2.300000e+01
      vertex   5.110000e+01 1.405000e+00 2.300000e+01
      vertex   5.110000e+01 -1.405000e+00 2.300000e+01
    endloop
  endfacet
  facet normal 8.251024e-15 1.000000e+00 -1.387779e-16
    outer loop
      vertex   -1.000000e+00 -1.405000e+00 2.300000e+01
      vertex   5.110000e+01 -1.405000e+00 2.300000e+01
      vertex   -1.000000e+00 -1.405000e+00 1.500000e+01
    endloop
  endfacet
  facet normal 8.238238e-15 1.000000e+00 -5.551115e-17
    outer loop
      vertex   -1.000000e+00 -1.405000e+00 1.500000e+01
      vertex   5.110000e+01 -1.405000e+00 2.300000e+01
      vertex   5.110000e+01 -1.405000e+00 1.500000e+01
    endloop
  endfacet
  facet normal -7.725476e-15 -1.000000e+00 -2.561665e-28
    outer loop
      vertex   5.200000e+01 -2.405000e+00 2.400000e+01
      vertex   -1.000000e+00 -2.405000e+00 2.400000e+01
      vertex   5.200000e+01 -2.405000e+00 1.500000e+01
    endloop
  endfacet
  facet normal -7.725476e-15 -1.000000e+00 0.000000e+00
    outer loop
      vertex   5.200000e+01 -2.405000e+00 1.500000e+01
      vertex   -1.000000e+00 -2.405000e+00 2.400000e+01
      vertex   -1.000000e+00 -2.405000e+00 1.500000e+01
    endloop
  endfacet
  facet normal -1.000000e+00 8.881784e-15 1.110223e-15
    outer loop
      vertex   -1.000000e+00 2.405000e+00 1.500000e+01
      vertex   -1.000000e+00 1.405000e+00 2.300000e+01
      vertex   -1.000000e+00 2.405000e+00 2.300000e+01
    endloop
  endfacet
  facet normal -1.000000e+00 8.881784e-15 -1.687539e-15
    outer loop
      vertex   -1.000000e+00 2.405000e+00 2.300000e+01
      vertex   -1.000000e+00 1.405000e+00 2.300000e+01
      vertex   -1.000000e+00 -2.405000e+00 2.400000e+01
    endloop
  endfacet
  facet normal -1.000000e+00 7.972142e-15 -6.062916e-15
    outer loop
      vertex   -1.000000e+00 2.405000e+00 2.300000e+01
      vertex   -1.000000e+00 -2.405000e+00 2.400000e+01
      vertex   -1.000000e+00 4.585500e+01 2.300000e+01
    endloop
  endfacet
  facet normal -1.000000e+00 8.033270e-15 -3.112892e-15
    outer loop
      vertex   -1.000000e+00 4.585500e+01 2.300000e+01
      vertex   -1.000000e+00 -2.405000e+00 2.400000e+01
      vertex   -1.000000e+00 5.066500e+01 2.400000e+01
    endloop
  endfacet
  facet normal -1.000000e+00 0.000000e+00 3.552714e-14
    outer loop
      vertex   -1.000000e+00 4.585500e+01 2.300000e+01
      vertex   -1.000000e+00 5.066500e+01 2.400000e+01
      vertex   -1.000000e+00 4.685500e+01 2.300000e+01
    endloop
  endfacet
  facet normal -1.000000e+00 9.482332e-15 -6.005477e-16
    outer loop
      vertex   -1.000000e+00 4.685500e+01 2.300000e+01
      vertex   -1.000000e+00 5.066500e+01 2.400000e+01
      vertex   -1.000000e+00 4.966500e+01 2.300000e+01
    endloop
  endfacet
  facet normal -1.000000e+00 8.881784e-15 0.000000e+00
    outer loop
      vertex   -1.000000e+00 4.966500e+01 2.300000e+01
      vertex   -1.000000e+00 5.066500e+01 2.400000e+01
      vertex   -1.000000e+00 5.066500e+01 1.500000e+01
    endloop
  endfacet
  facet normal -1.000000e+00 8.881784e-15 -7.888609e-30
    outer loop
      vertex   -1.000000e+00 4.966500e+01 2.300000e+01
      vertex   -1.000000e+00 5.066500e+01 1.500000e+01
      vertex   -1.000000e+00 4.966500e+01 1.500000e+01
    endloop
  endfacet
  facet normal -1.000000e+00 0.000000e+00 0.000000e+00
    outer loop
      vertex   -1.000000e+00 2.405000e+00 1.500000e+01
      vertex   -1.000000e+00 1.405000e+00 1.500000e+01
      vertex   -1.000000e+00 1.405000e+00 2.300000e+01
    endloop
  endfacet
  facet normal -1.000000e+00 9.482332e-15 6.005477e-16
    outer loop
      vertex   -1.000000e+00 1.405000e+00 2.300000e+01
      vertex   -1.000000e+00 -1.405000e+00 2.300000e+01
      vertex   -1.000000e+00 -2.405000e+00 2.400000e+01
    endloop
  endfacet
  facet normal -1.000000e+00 8.881784e-15 0.000000e+00
    outer loop
      vertex   -1.000000e+00 -2.405000e+00 2.400000e+01
      vertex   -1.000000e+00 -1.405000e+00 2.300000e+01
      vertex   -1.000000e+00 -2.405000e+00 1.500000e+01
    endloop
  endfacet
  facet normal -1.000000e+00 8.881784e-15 -1.183291e-30
    outer loop
      vertex   -1.000000e+00 -2.405000e+00 1.500000e+01
      vertex   -1.000000e+00 -1.405000e+00 2.300000e+01
      vertex   -1.000000e+00 -1.405000e+00 1.500000e+01
    endloop
  endfacet
  facet normal -1.000000e+00 -0.000000e+00 -0.000000e+00
    outer loop
      vertex   -1.000000e+00 4.685500e+01 2.300000e+01
      vertex   -1.000000e+00 4.685500e+01 1.500000e+01
      vertex   -1.000000e+00 4.585500e+01 2.300000e+01
    endloop
  endfacet
  facet normal -1.000000e+00 0.000000e+00 0.000000e+00
    outer loop
      vertex   -1.000000e+00 4.585500e+01 2.300000e+01
      vertex   -1.000000e+00 4.685500e+01 1.500000e+01
      vertex   -1.000000e+00 4.585500e+01 1.500000e+01
    endloop
  endfacet
  facet normal 7.507621e-15 1.000000e+00 7.894919e-16
    outer loop
      vertex   5.200000e+01 5.066500e+01 1.500000e+01
      vertex   -1.000000e+00 5.066500e+01 1.500000e+01
      vertex   5.200000e+01 5.066500e+01 2.400000e+01
    endloop
  endfacet
  facet normal 7.641686e-15 1.000000e+00 0.000000e+00
    outer loop
      vertex   5.200000e+01 5.066500e+01 2.400000e+01
      vertex   -1.000000e+00 5.066500e+01 1.500000e+01
      vertex   -1.000000e+00 5.066500e+01 2.400000e+01
    endloop
  endfacet
  facet normal 0.000000e+00 0.000000e+00 1.000000e+00
    outer loop
      vertex   5.200000e+01 5.066500e+01 2.400000e+01
      vertex   -1.000000e+00 5.066500e+01 2.400000e+01
      vertex   5.200000e+01 -2.405000e+00 2.400000e+01
    endloop
  endfacet
  facet normal 0.000000e+00 0.000000e+00 1.000000e+00
    outer loop
      vertex   5.200000e+01 -2.405000e+00 2.400000e+01
      vertex   -1.000000e+00 5.066500e+01 2.400000e+01
      vertex   -1.000000e+00 -2.405000e+00 2.400000e+01
    endloop
  endfacet
endsolid
